<svg width="1076" height="1178" fill="none" xmlns="http://www.w3.org/2000/svg"><g opacity=".08"><path d="m6.217 561.935 354.952 6.384 59.221 52.671L6.217 561.935Zm542.82-211.655 50.76 45.147 16.92 15.049L502.982 0l46.055 350.28Z" fill="#333BB4"/><path d="m571.675 546.301-19.44-196.21L502.982 0 350.885 171.007l45.463 395.241 158.762-1.322 16.565-18.625Z" fill="#434DE6"/><path d="m370.528 343.137 185.632 46.836-178.712 16.937-6.92-63.773Z" fill="#333BB4"/><path d="m556.801 566.43-197.137 3.582-353.447-8.077 152.097-171.007 397.845-.955 17.207 157.833-16.565 18.624Z" fill="#6079F6"/><path d="m642.044 818.133-317.728 26.725-318.1-282.923 404.022 50.026 231.806 206.172Zm189.56-216.534-10.523-318.676L502.982 0l96.816 395.427 231.806 206.172Z" fill="#454EE8"/></g><g opacity=".8"><path d="M1.959 661.369 419.65 676.8l68.537 63.323L1.959 661.369Zm643.7-237.045 58.746 54.277 19.582 18.093-124.73-485.73 46.402 413.36Z" fill="#333BB4"/><path d="m667.937 655.576-18.509-231.402-50.17-413.21-182.855 197.91 44.702 466.273 186.917 1.983 19.915-21.554Z" fill="#434DE6"/><path d="m435.688 411.936 217.472 59.272-210.749 15.952-6.723-75.224Z" fill="#333BB4"/><path d="m649.98 678.94-232.141-.181-415.88-17.39L184.814 463.46l468.346 7.748 16.735 186.177-19.915 21.555Z" fill="#6079F6"/><path d="M744.711 977.133 370.1 1001.51 1.959 661.369l474.479 67.899 268.273 247.865Zm227.968-250.666-5.28-375.365L599.258 10.965 704.406 478.6l268.273 247.866Z" fill="#454EE8"/></g></svg>