<svg width="413" height="78" fill="none" xmlns="http://www.w3.org/2000/svg"><path d="m0 .272 27.734 32.323v9.507L0 .272Zm62.266 31.779v10.865L90 0 62.266 32.051Z" fill="#333BB4"/><path d="m46.495 49.707 16.043-17.384L90 0H62.538L30.725 35.583l12.78 14.124h2.99Z" fill="#434DE6"/><path d="m48.67 15.482 10.604 20.372-15.77-14.667 5.166-5.705Z" fill="#333BB4"/><path d="M43.505 49.979 27.462 32.595 0 .272h27.462l31.813 35.582-12.78 14.125h-2.99Z" fill="#6079F6"/><path d="M27.734 77.684 0 51.337V.272l27.734 40.2v37.212Zm34.532-.271L90 51.065V0L62.266 40.2v37.213Z" fill="#454EE8"/><path d="M116.49 49.342v-21h4.02l8.94 14.82h-2.13l8.79-14.82h3.99l.06 21h-4.56l-.03-14.01h.84l-7.02 11.79h-2.19l-7.17-11.79h1.02v14.01h-4.56Zm37.982.36c-2.98 0-5.31-.83-6.99-2.49-1.68-1.66-2.52-4.03-2.52-7.11v-11.76h4.86v11.58c0 2 .41 3.44 1.23 4.32.82.88 1.97 1.32 3.45 1.32 1.48 0 2.63-.44 3.45-1.32.82-.88 1.23-2.32 1.23-4.32v-11.58h4.8v11.76c0 3.08-.84 5.45-2.52 7.11-1.68 1.66-4.01 2.49-6.99 2.49Zm14.313-.36v-21h9.09c1.88 0 3.5.31 4.86.93 1.36.6 2.41 1.47 3.15 2.61.74 1.14 1.11 2.5 1.11 4.08 0 1.56-.37 2.91-1.11 4.05-.74 1.12-1.79 1.98-3.15 2.58-1.36.6-2.98.9-4.86.9h-6.39l2.16-2.13v7.98h-4.86Zm13.35 0-5.25-7.62h5.19l5.31 7.62h-5.25Zm-8.49-7.44-2.16-2.28h6.12c1.5 0 2.62-.32 3.36-.96.74-.66 1.11-1.56 1.11-2.7 0-1.16-.37-2.06-1.11-2.7-.74-.64-1.86-.96-3.36-.96h-6.12l2.16-2.31v11.91Zm14.44 7.44 9.36-21h4.8l9.39 21h-5.1l-7.68-18.54h1.92l-7.71 18.54h-4.98Zm4.68-4.5 1.29-3.69h10.8l1.32 3.69h-13.41Zm27.949 4.86c-1.68 0-3.29-.22-4.83-.66-1.54-.46-2.78-1.05-3.72-1.77l1.65-3.66c.9.64 1.96 1.17 3.18 1.59 1.24.4 2.49.6 3.75.6.96 0 1.73-.09 2.31-.27.6-.2 1.04-.47 1.32-.81.28-.34.42-.73.42-1.17 0-.56-.22-1-.66-1.32-.44-.34-1.02-.61-1.74-.81-.72-.22-1.52-.42-2.4-.6-.86-.2-1.73-.44-2.61-.72-.86-.28-1.65-.64-2.37-1.08a5.448 5.448 0 0 1-1.77-1.74c-.44-.72-.66-1.64-.66-2.76 0-1.2.32-2.29.96-3.27.66-1 1.64-1.79 2.94-2.37 1.32-.6 2.97-.9 4.95-.9 1.32 0 2.62.16 3.9.48 1.28.3 2.41.76 3.39 1.38l-1.5 3.69c-.98-.56-1.96-.97-2.94-1.23-.98-.28-1.94-.42-2.88-.42s-1.71.11-2.31.33c-.6.22-1.03.51-1.29.87-.26.34-.39.74-.39 1.2 0 .54.22.98.66 1.32.44.32 1.02.58 1.74.78.72.2 1.51.4 2.37.6.88.2 1.75.43 2.61.69.88.26 1.68.61 2.4 1.05.72.44 1.3 1.02 1.74 1.74.46.72.69 1.63.69 2.73 0 1.18-.33 2.26-.99 3.24-.66.98-1.65 1.77-2.97 2.37-1.3.6-2.95.9-4.95.9Zm26.631-21.36h4.86v21h-4.86v-21Zm-9.54 21h-4.86v-21h4.86v21Zm9.9-8.61h-10.26v-4.11h10.26v4.11Zm13.939-3.93h10.11v3.78h-10.11v-3.78Zm.36 8.64h11.43v3.9h-16.26v-21h15.87v3.9h-11.04v13.2Zm21.304 3.9-9.06-21h5.25l7.92 18.6h-3.09l8.04-18.6h4.83l-9.09 21h-4.8Zm24.578 0v-21h4.02l8.94 14.82h-2.13l8.79-14.82h3.99l.06 21h-4.56l-.03-14.01h.84l-7.02 11.79h-2.19l-7.17-11.79h1.02v14.01h-4.56Zm33.123-12.54h10.11v3.78h-10.11v-3.78Zm.36 8.64h11.43v3.9h-16.26v-21h15.87v3.9h-11.04v13.2Zm15.297 3.9v-21h9.54c2.28 0 4.29.44 6.03 1.32 1.74.86 3.1 2.07 4.08 3.63s1.47 3.41 1.47 5.55c0 2.12-.49 3.97-1.47 5.55-.98 1.56-2.34 2.78-4.08 3.66-1.74.86-3.75 1.29-6.03 1.29h-9.54Zm4.86-3.99h4.44c1.4 0 2.61-.26 3.63-.78 1.04-.54 1.84-1.3 2.4-2.28.58-.98.87-2.13.87-3.45 0-1.34-.29-2.49-.87-3.45-.56-.98-1.36-1.73-2.4-2.25-1.02-.54-2.23-.81-3.63-.81h-4.44v13.02Zm19.925 3.99v-21h4.86v21h-4.86Zm7.084 0 9.36-21h4.8l9.39 21h-5.1l-7.68-18.54h1.92l-7.71 18.54h-4.98Zm4.68-4.5 1.29-3.69h10.8l1.32 3.69h-13.41Z" fill="#000"/></svg>