<svg width="291" height="43" fill="none" xmlns="http://www.w3.org/2000/svg"><path d="M268.593 11.684h-6.677v10.12l-9.198-10.12h-6.749v19.65h6.713V21.137l9.234 10.158v.039h6.677v-19.65Zm-60.388 0h6.713v19.647h-6.713l-9.232-10.196v10.196h-6.713V11.684h6.787l9.158 10.118V11.684Zm17.721 19.647h-8.748V11.693h7.005v13.484h10.491v6.154h-8.748Z" fill="#1BCE9B"/><path fill-rule="evenodd" clip-rule="evenodd" d="M236.936 21.468v9.863h6.772V11.684h-6.772v9.784Z" fill="#1BCE9B"/><path d="M178.663 11.262c-4.841 0-11.804 1.89-11.804 10.277 0 8.387 7 10.199 11.804 10.199 4.84 0 11.804-1.812 11.804-10.198.036-8.388-6.964-10.238-11.804-10.278Zm0 14.372c-2.123 0-5.176-.748-5.176-4.134s3.053-4.134 5.176-4.134c2.121 0 5.176.787 5.176 4.134 0 3.426-3.055 4.134-5.176 4.134Zm111.771-1.871v-4.51h-12.87v-2.78h12.87v-4.79h-19.582v19.65h19.582v-4.791h-12.87v-2.78h12.87Z" fill="#1BCE9B"/><path fill-rule="evenodd" clip-rule="evenodd" d="M18.745 25.006H7.968V11.684H1.242v19.649h17.503v-6.327Zm65.994-3.859 8.955-9.431H85.37l-8.398 8.763v-8.802h-6.726v19.648h6.726V21.62l3.568 3.93v.039l5.165 5.737h8.212L84.74 21.147Zm-41.581-9.463h-6.763v10.414c-.074 2.83-2.75 3.537-4.608 3.537-1.858 0-4.533-.63-4.608-3.537V11.684h-6.763v10.414c0 7.938 6.726 9.628 11.334 9.628s11.334-1.926 11.334-9.668V11.683h.074Z" fill="#121212" fill-opacity=".8"/><path fill-rule="evenodd" clip-rule="evenodd" d="M118.962 11.716h-8.212l-5.834 6.68-5.797-6.68h-8.25l10.665 12.457v7.153h6.726v-7.074l10.702-12.536ZM61.656 22.957c-.745 2.126-3.202 2.717-4.952 2.717-2.122 0-5.213-.709-5.213-4.135 0-3.425 3.09-4.174 5.213-4.174 1.713 0 4.021.473 4.877 2.402h6.889c-.894-6.93-7.26-8.505-11.729-8.505-4.84 0-11.878 1.85-11.878 10.277s7.038 10.199 11.84 10.199c4.543 0 11.022-1.812 11.767-8.82h-6.814v.039Z" fill="#121212" fill-opacity=".8"/><path d="M142.618 7.258V.003l-16.419 11.592.025 7.259 16.394-11.596Z" fill="#059068"/><path d="M142.618 23.432v7.27l-16.419-11.607.025-7.258 16.394 11.595Zm16.393-11.837-.025 7.259-16.39-11.596L142.62 0l16.391 11.595Zm-16.395 24.132V43l-16.419-11.61.025-7.262 16.394 11.599Z" fill="#1BCE9B"/><path d="m159.036 31.39-.025-7.263-16.39 11.599v7.273l16.415-11.61Zm0-12.293-.025-7.258-16.39 11.595v7.277l16.415-11.614Z" fill="#059068"/></svg>